#N canvas 733 261 482 335 10;
#X text 170 242 events are sent out in lists;
#X text 199 287 button # 0 is down aka '1';
#X obj 69 234 outlet;
#X obj 20 291 outlet;
#X text 17 -7 parses incoming OSC data from joyosc;
#X obj 20 30 inlet OSC in;
#X obj 20 148 route button axis;
#X obj 33 266 s \$1-button;
#X obj 85 212 s \$1-axis;
#X obj 20 117 route \$1;
#X obj 167 29 inlet;
#N canvas 0 22 288 359 axis 0;
#X obj 24 33 inlet;
#X obj 132 40 r \$0-range;
#X obj 24 308 outlet;
#X obj 98 187 expr ($f1+32767)/65534;
#X obj 115 219 expr ($f1+32767)/65534;
#X obj 115 247 * 127;
#N canvas 477 233 525 407 demux4 0;
#X obj 88 263 outlet;
#X obj 88 226 spigot 1;
#X obj 161 264 outlet;
#X obj 161 227 spigot 0;
#X obj 231 264 outlet;
#X obj 231 227 spigot 0;
#X obj 88 51 inlet;
#X obj 265 57 inlet;
#X obj 265 83 select 0 1 2 3;
#X msg 265 109 1 0 0 0;
#X msg 321 109 0 1 0 0;
#X msg 378 109 0 0 1 0;
#X msg 435 109 0 0 0 1;
#X obj 265 152 unpack 0 0 0 0;
#X obj 301 264 outlet;
#X obj 301 227 spigot 0;
#X connect 1 0 0 0;
#X connect 3 0 2 0;
#X connect 5 0 4 0;
#X connect 6 0 1 0;
#X connect 6 0 3 0;
#X connect 6 0 5 0;
#X connect 6 0 15 0;
#X connect 7 0 8 0;
#X connect 8 0 9 0;
#X connect 8 1 10 0;
#X connect 8 2 11 0;
#X connect 8 3 12 0;
#X connect 9 0 13 0;
#X connect 10 0 13 0;
#X connect 11 0 13 0;
#X connect 12 0 13 0;
#X connect 13 0 1 1;
#X connect 13 1 3 1;
#X connect 13 2 5 1;
#X connect 13 3 15 1;
#X connect 15 0 14 0;
#X restore 81 155 pd demux4;
#X obj 132 91 sel hid norm midi;
#X msg 132 122 0;
#X msg 171 122 1;
#X msg 207 122 2;
#X obj 24 64 unpack s f;
#X obj 24 276 pack s f;
#X obj 132 65 symbol;
#X connect 0 0 11 0;
#X connect 1 0 13 0;
#X connect 3 0 12 1;
#X connect 4 0 5 0;
#X connect 5 0 12 1;
#X connect 6 0 12 1;
#X connect 6 1 3 0;
#X connect 6 2 4 0;
#X connect 7 0 8 0;
#X connect 7 1 9 0;
#X connect 7 2 10 0;
#X connect 8 0 6 1;
#X connect 9 0 6 1;
#X connect 10 0 6 1;
#X connect 11 0 12 0;
#X connect 11 1 6 0;
#X connect 12 0 2 0;
#X connect 13 0 7 0;
#X restore 69 179 pd axis range;
#N canvas 4 48 306 237 arg2 0;
#X obj 88 32 loadbang;
#X obj 127 173 outlet;
#X obj 88 136 sel SYM;
#X obj 88 64 t b b;
#X msg 164 103 symbol;
#X obj 88 103 symbol \$2;
#X connect 0 0 3 0;
#X connect 2 1 1 0;
#X connect 3 0 5 0;
#X connect 3 1 4 0;
#X connect 4 0 2 1;
#X connect 5 0 2 0;
#X restore 236 60 pd arg2;
#X obj 167 60 route set;
#X obj 218 90 s \$0-range;
#X text 254 143 2: axis range mapping:;
#X text 272 166 hid: -32767 - 32767 (default);
#X text 170 125 creation args 1: device address name \, ex: gc0;
#X text 272 188 norm: 0 - 1 (normalized);
#X text 273 210 midi: 0 - 127;
#X text 172 263 ex: gc0-button "0 1";
#X obj 167 89 symbol;
#X connect 5 0 9 0;
#X connect 6 0 3 0;
#X connect 6 0 7 0;
#X connect 6 1 11 0;
#X connect 9 0 6 0;
#X connect 10 0 13 0;
#X connect 11 0 8 0;
#X connect 11 0 2 0;
#X connect 12 0 14 0;
#X connect 13 0 21 0;
#X connect 13 1 14 0;
#X connect 21 0 9 1;
#X coords 0 335 1 334 130 62 0;
