#N canvas 690 123 881 544 12;
#X obj 66 330 noise~;
#X obj 66 441 output~;
#X obj 66 360 bp~ 100 10;
#X floatatom 220 240 5 0 0 0 - - -, f 5;
#X msg 220 268 \$1 500;
#X floatatom 640 264 5 0 0 0 - - -, f 5;
#X obj 640 176 bng 15 250 50 0 empty empty empty 17 7 0 10 #fcfcfc
#000000 #000000;
#X obj 640 235 + 150;
#X floatatom 410 180 7 0 0 0 - - -, f 7;
#X floatatom 410 237 5 0 0 0 - - -, f 5;
#X obj 410 204 expr pow(10 \, $f1);
#X obj 640 56 tgl 15 0 empty random empty 17 7 0 10 #fcfcfc #000000
#000000 1 1;
#X obj 640 80 metro 500;
#X obj 640 206 random 500;
#X obj 640 109 random 10;
#X obj 640 136 moses 6;
#X msg 410 265 \$1 250;
#X obj 66 389 *~ 1;
#X msg 90 198 \$1 250;
#X floatatom 90 49 6 0 0 0 - - -, f 6;
#X floatatom 90 106 5 0 0 0 - - -, f 5;
#X floatatom 220 49 6 0 0 0 - - -, f 6;
#X floatatom 220 106 5 0 0 0 - - -, f 5;
#X obj 220 20 r lefty;
#X floatatom 410 49 7 0 0 0 - - -, f 7;
#X floatatom 410 106 7 0 0 0 - - -, f 7;
#X obj 410 20 r righty;
#X obj 220 140 spigot;
#X obj 290 116 tgl 15 1 empty freq empty 17 7 0 10 #fcfcfc #000000
#000000 1 1;
#X obj 410 140 spigot;
#X obj 480 116 tgl 15 1 empty Q empty 17 7 0 10 #fcfcfc #000000 #000000
1 1;
#X obj 220 297 line 100;
#X obj 90 227 line 1;
#X obj 410 77 expr 1-$f1/32768;
#X text 20 500 (c) 2024 aggraef@gmail.com;
#X text 150 20 volume;
#X text 490 20 filter Q;
#X text 280 20 filter frequency;
#X text 470 180 0-2 => Q = 1-100, f 18;
#X text 640 20 random frequencies;
#X text 260 350 buttons: A/B toggles lefty/righty \, X toggles random
sequence, f 35;
#X obj 260 400 r a;
#X obj 260 429 change;
#X obj 260 458 sel 0;
#X obj 260 487 bng 15 250 50 0 empty empty empty 17 7 0 10 #fcfcfc
#000000 #000000;
#X obj 340 429 change;
#X obj 340 458 sel 0;
#X obj 340 487 bng 15 250 50 0 empty empty empty 17 7 0 10 #fcfcfc
#000000 #000000;
#X obj 260 511 s freq;
#X obj 340 511 s Q;
#X obj 400 429 change;
#X obj 400 458 sel 0;
#X obj 400 487 bng 15 250 50 0 empty empty empty 17 7 0 10 #fcfcfc
#000000 #000000;
#X obj 400 511 s random;
#X text 540 350 D-pad: up/down changes volume;
#X obj 340 400 r b;
#X obj 400 400 r x;
#X obj 540 400 r dpup;
#X obj 540 429 change;
#X obj 540 458 sel 0;
#X obj 90 20 r vol;
#X obj 540 516 s vol;
#X obj 660 429 change;
#X obj 660 458 sel 0;
#X obj 660 516 s vol;
#X obj 660 400 r dpdown;
#X obj 790 400 loadbang;
#X obj 90 77 dbtorms;
#X msg 790 429 100;
#X obj 790 460 s vol;
#X obj 790 490 v vol;
#X obj 540 487 expr vol + 1;
#X obj 660 487 expr vol - 1;
#X obj 220 77 expr (1-$f1/32768)*300+150;
#X obj 410 294 line 10 5;
#X connect 0 0 2 0;
#X connect 2 0 17 0;
#X connect 3 0 4 0;
#X connect 4 0 31 0;
#X connect 5 0 3 0;
#X connect 6 0 13 0;
#X connect 7 0 5 0;
#X connect 8 0 10 0;
#X connect 9 0 16 0;
#X connect 10 0 9 0;
#X connect 11 0 12 0;
#X connect 12 0 14 0;
#X connect 13 0 7 0;
#X connect 14 0 15 0;
#X connect 15 1 6 0;
#X connect 16 0 74 0;
#X connect 17 0 1 0;
#X connect 17 0 1 1;
#X connect 18 0 32 0;
#X connect 19 0 67 0;
#X connect 20 0 18 0;
#X connect 21 0 73 0;
#X connect 22 0 27 0;
#X connect 23 0 21 0;
#X connect 24 0 33 0;
#X connect 25 0 29 0;
#X connect 26 0 24 0;
#X connect 27 0 3 0;
#X connect 28 0 27 1;
#X connect 29 0 8 0;
#X connect 30 0 29 1;
#X connect 31 0 2 1;
#X connect 32 0 17 1;
#X connect 33 0 25 0;
#X connect 41 0 42 0;
#X connect 42 0 43 0;
#X connect 43 0 44 0;
#X connect 44 0 48 0;
#X connect 45 0 46 0;
#X connect 46 0 47 0;
#X connect 47 0 49 0;
#X connect 50 0 51 0;
#X connect 51 0 52 0;
#X connect 52 0 53 0;
#X connect 55 0 45 0;
#X connect 56 0 50 0;
#X connect 57 0 58 0;
#X connect 58 0 59 0;
#X connect 59 0 71 0;
#X connect 60 0 19 0;
#X connect 62 0 63 0;
#X connect 63 0 72 0;
#X connect 65 0 62 0;
#X connect 66 0 68 0;
#X connect 67 0 20 0;
#X connect 68 0 69 0;
#X connect 71 0 61 0;
#X connect 72 0 64 0;
#X connect 73 0 22 0;
#X connect 74 0 2 2;
